<svg xmlns="http://www.w3.org/2000/svg" xmlns:xlink="http://www.w3.org/1999/xlink" width="500" zoomAndPan="magnify" viewBox="0 0 375 374.999991" height="500" preserveAspectRatio="xMidYMid meet" version="1.0"><defs><clipPath id="f594a677be"><path d="M 88.429688 81.105469 L 128.503906 81.105469 L 128.503906 291.628906 L 88.429688 291.628906 Z M 88.429688 81.105469 " clip-rule="nonzero"/></clipPath><clipPath id="baf8edf379"><path d="M 105 173 L 237 173 L 237 292 L 105 292 Z M 105 173 " clip-rule="nonzero"/></clipPath><clipPath id="084b511ab3"><path d="M 128.507812 291.621094 L 105.347656 264.070312 L 212.859375 173.683594 L 236.019531 201.230469 Z M 128.507812 291.621094 " clip-rule="nonzero"/></clipPath><clipPath id="d5011b3cb1"><path d="M 137 87 L 288 87 L 288 222 L 137 222 Z M 137 87 " clip-rule="nonzero"/></clipPath><clipPath id="779884d221"><path d="M 287.097656 97.332031 L 138.214844 221.589844 L 112.726562 191.050781 L 261.609375 66.789062 Z M 287.097656 97.332031 " clip-rule="nonzero"/></clipPath><clipPath id="5de0281bc0"><path d="M 236.363281 87.863281 L 137.992188 169.964844 L 138.234375 221.574219 L 287.097656 97.332031 Z M 236.363281 87.863281 " clip-rule="nonzero"/></clipPath><clipPath id="e6c66b1c5c"><path d="M 185 173 L 307 173 L 307 303 L 185 303 Z M 185 173 " clip-rule="nonzero"/></clipPath><clipPath id="9ba0ab575d"><path d="M 185.972656 197.742188 L 212.746094 173.691406 L 306.613281 278.179688 L 279.839844 302.234375 Z M 185.972656 197.742188 " clip-rule="nonzero"/></clipPath><clipPath id="91e525c526"><path d="M 232 79 L 288 79 L 288 134 L 232 134 Z M 232 79 " clip-rule="nonzero"/></clipPath><clipPath id="5aa8a50f22"><path d="M 287.089844 79.984375 L 236.34375 133.921875 L 212.328125 111.328125 L 263.074219 57.390625 Z M 287.089844 79.984375 " clip-rule="nonzero"/></clipPath><clipPath id="63cebf4dea"><path d="M 242.648438 79.101562 L 232.824219 89.542969 L 236.414062 133.847656 L 287.089844 79.984375 Z M 242.648438 79.101562 " clip-rule="nonzero"/></clipPath><clipPath id="c4260f4d9f"><path d="M 215 81 L 247 81 L 247 111 L 215 111 Z M 215 81 " clip-rule="nonzero"/></clipPath><clipPath id="5f0a2ca90a"><path d="M 215.558594 105.667969 L 242.453125 81.105469 L 246.53125 85.570312 L 219.636719 110.136719 Z M 215.558594 105.667969 " clip-rule="nonzero"/></clipPath><clipPath id="a8ddb92c6f"><path d="M 193.308594 260.824219 L 224.113281 260.824219 L 224.113281 291.628906 L 193.308594 291.628906 Z M 193.308594 260.824219 " clip-rule="nonzero"/></clipPath><clipPath id="ca1be2980b"><path d="M 208.710938 260.824219 C 200.203125 260.824219 193.308594 267.71875 193.308594 276.226562 C 193.308594 284.734375 200.203125 291.628906 208.710938 291.628906 C 217.21875 291.628906 224.113281 284.734375 224.113281 276.226562 C 224.113281 267.71875 217.21875 260.824219 208.710938 260.824219 Z M 208.710938 260.824219 " clip-rule="nonzero"/></clipPath><clipPath id="ae24ea2113"><path d="M 68.390625 81.105469 L 108.464844 81.105469 L 108.464844 110.136719 L 68.390625 110.136719 Z M 68.390625 81.105469 " clip-rule="nonzero"/></clipPath><clipPath id="fd4c0506b1"><path d="M 88.992188 150 L 115 150 L 115 251 L 88.992188 251 Z M 88.992188 150 " clip-rule="nonzero"/></clipPath><clipPath id="3c3150325c"><path d="M 88.992188 139.945312 L 170.742188 139.945312 L 170.742188 305.695312 L 88.992188 305.695312 Z M 88.992188 139.945312 " clip-rule="nonzero"/></clipPath></defs><rect x="-37.5" width="450" fill="#ffffff" y="-37.499999" height="449.999989" fill-opacity="1"/><rect x="-37.5" width="450" fill="#ffde59" y="-37.499999" height="449.999989" fill-opacity="1"/><g clip-path="url(#f594a677be)"><path fill="#2a9d8f" d="M 88.429688 81.105469 L 128.503906 81.105469 L 128.503906 291.667969 L 88.429688 291.667969 Z M 88.429688 81.105469 " fill-opacity="1" fill-rule="nonzero"/></g><g clip-path="url(#baf8edf379)"><g clip-path="url(#084b511ab3)"><path fill="#2a9d8f" d="M 128.507812 291.621094 L 105.347656 264.070312 L 212.855469 173.6875 L 236.015625 201.238281 Z M 128.507812 291.621094 " fill-opacity="1" fill-rule="nonzero"/></g></g><g clip-path="url(#d5011b3cb1)"><g clip-path="url(#779884d221)"><g clip-path="url(#5de0281bc0)"><path fill="#94da81" d="M 287.097656 97.332031 L 138.214844 221.589844 L 112.726562 191.050781 L 261.609375 66.789062 Z M 287.097656 97.332031 " fill-opacity="1" fill-rule="nonzero"/></g></g></g><g clip-path="url(#e6c66b1c5c)"><g clip-path="url(#9ba0ab575d)"><path fill="#2a9d8f" d="M 185.972656 197.742188 L 212.746094 173.691406 L 306.609375 278.175781 L 279.835938 302.226562 Z M 185.972656 197.742188 " fill-opacity="1" fill-rule="nonzero"/></g></g><g clip-path="url(#91e525c526)"><g clip-path="url(#5aa8a50f22)"><g clip-path="url(#63cebf4dea)"><path fill="#94da81" d="M 287.089844 79.984375 L 236.429688 133.828125 L 212.414062 111.234375 L 263.074219 57.390625 Z M 287.089844 79.984375 " fill-opacity="1" fill-rule="nonzero"/></g></g></g><g clip-path="url(#c4260f4d9f)"><g clip-path="url(#5f0a2ca90a)"><path fill="#94da81" d="M 215.558594 105.667969 L 242.449219 81.109375 L 246.527344 85.574219 L 219.636719 110.136719 Z M 215.558594 105.667969 " fill-opacity="1" fill-rule="nonzero"/></g></g><g clip-path="url(#a8ddb92c6f)"><g clip-path="url(#ca1be2980b)"><path fill="#94da81" d="M 193.308594 260.824219 L 224.113281 260.824219 L 224.113281 291.628906 L 193.308594 291.628906 Z M 193.308594 260.824219 " fill-opacity="1" fill-rule="nonzero"/></g></g><path stroke-linecap="butt" transform="matrix(0, 0.205386, -0.205386, 0, 209.737959, 260.822824)" fill="none" stroke-linejoin="miter" d="M 0.00678857 5.000443 L 149.991105 5.000443 " stroke="#ffffff" stroke-width="10" stroke-opacity="1" stroke-miterlimit="4"/><path stroke-linecap="butt" transform="matrix(0.205386, 0, 0, 0.205386, 193.307087, 275.199856)" fill="none" stroke-linejoin="miter" d="M 0.00733615 4.998913 L 149.991652 4.998913 " stroke="#ffffff" stroke-width="10" stroke-opacity="1" stroke-miterlimit="4"/><g clip-path="url(#ae24ea2113)"><path fill="#2a9d8f" d="M 68.390625 81.105469 L 108.421875 81.105469 L 108.421875 110.136719 L 68.390625 110.136719 Z M 68.390625 81.105469 " fill-opacity="1" fill-rule="nonzero"/></g><g clip-path="url(#fd4c0506b1)"><path fill="#ffffff" d="M 99.785156 165 C 90.382812 155.59375 77.859375 150.414062 64.527344 150.414062 C 51.191406 150.414062 38.671875 155.59375 29.265625 165 C 9.824219 184.441406 9.824219 216.078125 29.265625 235.523438 C 38.667969 244.929688 51.1875 250.109375 64.523438 250.109375 C 77.859375 250.109375 90.382812 244.929688 99.785156 235.523438 C 109.191406 226.117188 114.371094 213.597656 114.371094 200.261719 C 114.371094 186.929688 109.1875 174.402344 99.785156 165 Z M 96.996094 232.734375 C 88.335938 241.394531 76.804688 246.164062 64.523438 246.164062 C 52.242188 246.164062 40.710938 241.394531 32.054688 232.734375 C 14.148438 214.828125 14.148438 185.695312 32.054688 167.789062 C 40.714844 159.128906 52.246094 154.359375 64.527344 154.359375 C 76.808594 154.359375 88.335938 159.128906 96.996094 167.789062 C 114.902344 185.695312 114.902344 214.828125 96.996094 232.734375 Z M 96.996094 232.734375 " fill-opacity="1" fill-rule="nonzero"/></g><g clip-path="url(#3c3150325c)"><path fill="#ffffff" d="M 166.46875 284.027344 L 133.273438 250.835938 L 126.40625 243.964844 C 125.667969 243.226562 124.355469 243.226562 123.617188 243.964844 L 122.570312 245.011719 C 122.476562 244.78125 122.339844 244.566406 122.152344 244.378906 L 113.699219 235.921875 C 121.191406 225.628906 125.246094 213.265625 125.246094 200.261719 C 125.246094 184.015625 118.9375 168.761719 107.480469 157.304688 C 96.023438 145.851562 80.769531 139.542969 64.527344 139.542969 C 48.285156 139.542969 33.027344 145.855469 21.570312 157.308594 C -2.113281 180.992188 -2.113281 219.53125 21.570312 243.21875 C 33.03125 254.671875 48.285156 260.980469 64.527344 260.980469 C 77.53125 260.980469 89.894531 256.925781 100.1875 249.4375 L 108.644531 257.894531 C 108.828125 258.082031 109.046875 258.21875 109.273438 258.3125 L 108.238281 259.351562 C 107.46875 260.121094 107.46875 261.371094 108.238281 262.140625 L 115.371094 269.273438 L 148.296875 302.207031 C 150.722656 304.632812 153.949219 305.972656 157.382812 305.972656 C 160.8125 305.972656 164.042969 304.632812 166.46875 302.207031 C 171.480469 297.191406 171.480469 289.039062 166.46875 284.027344 Z M 24.355469 240.425781 C 2.210938 218.277344 2.210938 182.242188 24.355469 160.09375 C 35.070312 149.382812 49.335938 143.484375 64.523438 143.484375 C 79.710938 143.484375 93.976562 149.382812 104.6875 160.089844 C 115.398438 170.800781 121.296875 185.066406 121.296875 200.257812 C 121.296875 215.445312 115.398438 229.710938 104.6875 240.417969 C 93.976562 251.128906 79.710938 257.027344 64.523438 257.027344 C 49.335938 257.03125 35.070312 251.132812 24.355469 240.425781 Z M 111.429688 255.101562 L 103.324219 246.992188 C 104.757812 245.800781 106.144531 244.546875 107.476562 243.210938 C 108.808594 241.878906 110.066406 240.492188 111.257812 239.0625 L 119.359375 247.167969 C 119.546875 247.355469 119.761719 247.492188 119.996094 247.585938 L 111.847656 255.734375 C 111.753906 255.503906 111.617188 255.289062 111.429688 255.101562 Z M 125.011719 248.148438 L 129.132812 252.269531 L 116.722656 265.046875 L 112.417969 260.742188 Z M 163.679688 299.414062 C 161.996094 301.097656 159.761719 302.023438 157.382812 302.023438 C 155.003906 302.023438 152.765625 301.097656 151.085938 299.414062 L 119.511719 267.835938 L 131.921875 255.058594 L 163.683594 286.816406 C 167.152344 290.289062 167.152344 295.9375 163.679688 299.414062 Z M 163.679688 299.414062 " fill-opacity="1" fill-rule="nonzero"/></g></svg>