<svg xmlns="http://www.w3.org/2000/svg" xmlns:xlink="http://www.w3.org/1999/xlink" width="500" zoomAndPan="magnify" viewBox="0 0 375 374.999991" height="500" preserveAspectRatio="xMidYMid meet" version="1.0"><defs><filter x="0%" y="0%" width="100%" height="100%" id="e0fa9776c8"><feColorMatrix values="0 0 0 0 1 0 0 0 0 1 0 0 0 0 1 0 0 0 1 0" color-interpolation-filters="sRGB"/></filter><clipPath id="da598f27d5"><path d="M 61 81.066406 L 212 81.066406 L 212 267 L 61 267 Z M 61 81.066406 " clip-rule="nonzero"/></clipPath><clipPath id="a964beda72"><path d="M 89 81.066406 L 151 81.066406 L 151 114 L 89 114 Z M 89 81.066406 " clip-rule="nonzero"/></clipPath><clipPath id="9f255f3218"><path d="M 171 129 L 314.769531 129 L 314.769531 272 L 171 272 Z M 171 129 " clip-rule="nonzero"/></clipPath><mask id="b78e47ae36"><g filter="url(#e0fa9776c8)"><rect x="-37.5" width="450" fill="#000000" y="-37.499999" height="449.999989" fill-opacity="0.3"/></g></mask><clipPath id="39393a441b"><path d="M 0.441406 0.320312 L 74.601562 0.320312 L 74.601562 116 L 0.441406 116 Z M 0.441406 0.320312 " clip-rule="nonzero"/></clipPath><clipPath id="eaab900875"><rect x="0" width="75" y="0" height="116"/></clipPath><mask id="d95b1313de"><g filter="url(#e0fa9776c8)"><rect x="-37.5" width="450" fill="#000000" y="-37.499999" height="449.999989" fill-opacity="0.3"/></g></mask><clipPath id="10dab8b92e"><path d="M 0.480469 1 L 20 1 L 20 12 L 0.480469 12 Z M 0.480469 1 " clip-rule="nonzero"/></clipPath><clipPath id="5b4246e4d4"><rect x="0" width="21" y="0" height="13"/></clipPath><mask id="82439aa630"><g filter="url(#e0fa9776c8)"><rect x="-37.5" width="450" fill="#000000" y="-37.499999" height="449.999989" fill-opacity="0.3"/></g></mask><clipPath id="a9d0808111"><path d="M 0.320312 0.398438 L 39.679688 0.398438 L 39.679688 35.441406 L 0.320312 35.441406 Z M 0.320312 0.398438 " clip-rule="nonzero"/></clipPath><clipPath id="f68ffeddf2"><rect x="0" width="40" y="0" height="36"/></clipPath><mask id="cd8c62948e"><g filter="url(#e0fa9776c8)"><rect x="-37.5" width="450" fill="#000000" y="-37.499999" height="449.999989" fill-opacity="0.3"/></g></mask><clipPath id="18a15e936b"><path d="M 0.28125 0.121094 L 160 0.121094 L 160 84.601562 L 0.28125 84.601562 Z M 0.28125 0.121094 " clip-rule="nonzero"/></clipPath><clipPath id="ba1e6b34ff"><rect x="0" width="161" y="0" height="85"/></clipPath><mask id="63b076a89b"><g filter="url(#e0fa9776c8)"><rect x="-37.5" width="450" fill="#000000" y="-37.499999" height="449.999989" fill-opacity="0.3"/></g></mask><clipPath id="4bc760e7ed"><path d="M 0.0390625 1 L 69.878906 1 L 69.878906 77.199219 L 0.0390625 77.199219 Z M 0.0390625 1 " clip-rule="nonzero"/></clipPath><clipPath id="4ab14e44da"><rect x="0" width="70" y="0" height="78"/></clipPath></defs><g clip-path="url(#da598f27d5)"><path fill="#45b28f" d="M 211.28125 238.492188 L 177.714844 84.085938 C 177.519531 83.1875 176.988281 82.417969 176.210938 81.921875 C 175.4375 81.421875 174.515625 81.257812 173.617188 81.453125 L 63.867188 105.3125 C 62.007812 105.714844 60.828125 107.550781 61.230469 109.410156 L 94.796875 263.8125 C 94.992188 264.710938 95.523438 265.480469 96.300781 265.980469 C 96.863281 266.339844 97.5 266.527344 98.15625 266.527344 C 98.402344 266.527344 98.648438 266.5 98.894531 266.449219 L 208.644531 242.589844 C 210.5 242.1875 211.683594 240.347656 211.28125 238.492188 Z M 211.28125 238.492188 " fill-opacity="1" fill-rule="nonzero"/></g><path fill="#f5faf4" d="M 170.847656 90.59375 L 170.792969 90.351562 L 70.371094 112.179688 L 70.128906 112.230469 L 101.664062 257.308594 L 101.71875 257.550781 L 202.382812 235.667969 Z M 170.847656 90.59375 " fill-opacity="1" fill-rule="nonzero"/><path fill="#45b28f" d="M 98.011719 127.125 C 100.597656 123.742188 103.542969 120.6875 106.78125 118.054688 C 107.050781 117.835938 107.089844 117.445312 106.875 117.179688 C 106.65625 116.910156 106.265625 116.871094 105.996094 117.089844 C 102.949219 119.566406 100.15625 122.414062 97.667969 125.546875 L 97.507812 124.800781 L 81.640625 128.25 L 85.089844 144.117188 L 100.953125 140.667969 Z M 82.234375 128.632812 L 97.125 125.394531 L 97.265625 126.046875 C 94.675781 129.382812 92.433594 133.035156 90.601562 136.917969 L 87.714844 132.914062 C 87.515625 132.632812 87.125 132.570312 86.847656 132.773438 C 86.566406 132.972656 86.503906 133.363281 86.703125 133.640625 L 90.847656 139.390625 L 91.289062 138.40625 C 93.011719 134.574219 95.144531 130.964844 97.613281 127.652344 L 100.359375 140.285156 L 85.472656 143.523438 Z M 82.234375 128.632812 " fill-opacity="1" fill-rule="nonzero"/><path fill="#45b28f" d="M 102.527344 147.90625 C 105.113281 144.523438 108.0625 141.46875 111.300781 138.835938 C 111.566406 138.617188 111.609375 138.226562 111.390625 137.957031 C 111.171875 137.691406 110.78125 137.652344 110.515625 137.867188 C 107.464844 140.347656 104.671875 143.195312 102.183594 146.324219 L 101.988281 145.414062 L 86.121094 148.863281 L 89.570312 164.726562 L 105.433594 161.277344 Z M 86.714844 149.246094 L 101.605469 146.007812 L 101.78125 146.828125 C 99.195312 150.164062 96.953125 153.816406 95.121094 157.699219 L 92.230469 153.691406 C 92.03125 153.414062 91.640625 153.351562 91.363281 153.550781 C 91.082031 153.753906 91.019531 154.144531 91.222656 154.421875 L 95.367188 160.167969 L 95.808594 159.183594 C 97.53125 155.351562 99.660156 151.742188 102.132812 148.433594 L 104.839844 160.898438 L 89.953125 164.132812 Z M 86.714844 149.246094 " fill-opacity="1" fill-rule="nonzero"/><path fill="#45b28f" d="M 106.988281 168.417969 C 109.574219 165.035156 112.519531 161.980469 115.757812 159.347656 C 116.027344 159.132812 116.066406 158.738281 115.847656 158.472656 C 115.632812 158.203125 115.238281 158.164062 114.972656 158.382812 C 111.925781 160.859375 109.132812 163.707031 106.644531 166.839844 L 106.46875 166.027344 L 90.601562 169.476562 L 94.050781 185.339844 L 109.914062 181.890625 Z M 91.195312 169.855469 L 106.085938 166.621094 L 106.242188 167.339844 C 103.652344 170.675781 101.410156 174.328125 99.578125 178.210938 L 96.691406 174.207031 C 96.492188 173.925781 96.101562 173.863281 95.820312 174.066406 C 95.542969 174.265625 95.480469 174.65625 95.679688 174.933594 L 99.824219 180.683594 L 100.265625 179.699219 C 101.988281 175.867188 104.121094 172.257812 106.589844 168.945312 L 109.320312 181.507812 L 94.433594 184.746094 Z M 91.195312 169.855469 " fill-opacity="1" fill-rule="nonzero"/><path fill="#45b28f" d="M 110.949219 186.636719 L 95.082031 190.085938 L 98.53125 205.953125 L 114.394531 202.503906 Z M 95.675781 190.46875 L 110.566406 187.230469 L 113.804688 202.121094 L 98.914062 205.359375 Z M 95.675781 190.46875 " fill-opacity="1" fill-rule="nonzero"/><path fill="#45b28f" d="M 115.429688 207.25 L 99.5625 210.699219 L 103.011719 226.5625 L 118.875 223.113281 Z M 100.15625 211.082031 L 115.046875 207.84375 L 118.285156 222.734375 L 103.394531 225.96875 Z M 100.15625 211.082031 " fill-opacity="1" fill-rule="nonzero"/><path fill="#45b28f" d="M 104.042969 231.3125 L 107.492188 247.175781 L 123.359375 243.726562 L 119.910156 227.863281 Z M 107.875 246.582031 L 104.636719 231.691406 L 119.527344 228.457031 L 122.765625 243.34375 Z M 107.875 246.582031 " fill-opacity="1" fill-rule="nonzero"/><path fill="#45b28f" d="M 103.617188 126.324219 C 103.636719 126.40625 103.707031 126.460938 103.785156 126.460938 C 103.796875 126.460938 103.8125 126.457031 103.824219 126.457031 L 164.753906 113.210938 C 164.847656 113.191406 164.910156 113.097656 164.886719 113.003906 C 164.867188 112.910156 164.777344 112.851562 164.683594 112.871094 L 103.75 126.117188 C 103.65625 126.136719 103.597656 126.230469 103.617188 126.324219 Z M 103.617188 126.324219 " fill-opacity="1" fill-rule="nonzero"/><path fill="#45b28f" d="M 156.15625 120.21875 C 156.136719 120.125 156.039062 120.066406 155.949219 120.085938 L 104.675781 131.234375 C 104.582031 131.253906 104.519531 131.347656 104.542969 131.441406 C 104.558594 131.519531 104.632812 131.574219 104.710938 131.574219 C 104.722656 131.574219 104.734375 131.574219 104.75 131.570312 L 156.023438 120.425781 C 156.117188 120.40625 156.175781 120.3125 156.15625 120.21875 Z M 156.15625 120.21875 " fill-opacity="1" fill-rule="nonzero"/><path fill="#45b28f" d="M 105.921875 136.738281 C 105.9375 136.820312 106.011719 136.875 106.089844 136.875 C 106.101562 136.875 106.113281 136.875 106.128906 136.871094 L 165.683594 123.925781 C 165.773438 123.90625 165.835938 123.8125 165.8125 123.71875 C 165.792969 123.625 165.703125 123.566406 165.609375 123.585938 L 106.054688 136.53125 C 105.960938 136.550781 105.902344 136.644531 105.921875 136.738281 Z M 105.921875 136.738281 " fill-opacity="1" fill-rule="nonzero"/><path fill="#45b28f" d="M 158.828125 135.90625 C 158.808594 135.8125 158.714844 135.753906 158.621094 135.773438 L 108.054688 146.765625 C 107.960938 146.785156 107.902344 146.878906 107.921875 146.972656 C 107.941406 147.054688 108.011719 147.109375 108.09375 147.109375 C 108.105469 147.109375 108.117188 147.109375 108.128906 147.105469 L 158.695312 136.113281 C 158.789062 136.09375 158.847656 136 158.828125 135.90625 Z M 158.828125 135.90625 " fill-opacity="1" fill-rule="nonzero"/><path fill="#45b28f" d="M 109.046875 152.21875 C 109.058594 152.21875 109.070312 152.21875 109.085938 152.214844 L 151.636719 142.964844 C 151.730469 142.945312 151.789062 142.851562 151.769531 142.757812 C 151.75 142.664062 151.65625 142.605469 151.5625 142.625 L 109.011719 151.875 C 108.917969 151.898438 108.859375 151.988281 108.878906 152.082031 C 108.894531 152.164062 108.96875 152.21875 109.046875 152.21875 Z M 109.046875 152.21875 " fill-opacity="1" fill-rule="nonzero"/><path fill="#45b28f" d="M 110.390625 157.527344 C 110.402344 157.527344 110.414062 157.523438 110.425781 157.523438 L 159.851562 146.777344 C 159.945312 146.757812 160.003906 146.664062 159.984375 146.570312 C 159.960938 146.476562 159.871094 146.421875 159.777344 146.441406 L 110.351562 157.183594 C 110.257812 157.203125 110.199219 157.296875 110.21875 157.390625 C 110.238281 157.472656 110.308594 157.527344 110.390625 157.527344 Z M 110.390625 157.527344 " fill-opacity="1" fill-rule="nonzero"/><path fill="#45b28f" d="M 112.214844 167.625 C 112.230469 167.707031 112.304688 167.761719 112.382812 167.761719 C 112.394531 167.761719 112.40625 167.761719 112.417969 167.757812 L 151.710938 159.21875 C 151.804688 159.199219 151.863281 159.105469 151.84375 159.011719 C 151.824219 158.917969 151.730469 158.859375 151.636719 158.878906 L 112.347656 167.421875 C 112.253906 167.441406 112.191406 167.53125 112.214844 167.625 Z M 112.214844 167.625 " fill-opacity="1" fill-rule="nonzero"/><path fill="#45b28f" d="M 113.371094 172.867188 C 113.382812 172.867188 113.394531 172.863281 113.40625 172.863281 L 146.472656 165.675781 C 146.566406 165.652344 146.625 165.5625 146.605469 165.46875 C 146.585938 165.375 146.492188 165.316406 146.398438 165.335938 L 113.335938 172.523438 C 113.242188 172.542969 113.183594 172.636719 113.203125 172.730469 C 113.21875 172.808594 113.292969 172.867188 113.371094 172.867188 Z M 113.371094 172.867188 " fill-opacity="1" fill-rule="nonzero"/><path fill="#45b28f" d="M 114.671875 178.179688 C 114.683594 178.179688 114.699219 178.179688 114.710938 178.175781 L 153.113281 169.828125 C 153.207031 169.808594 153.265625 169.714844 153.246094 169.621094 C 153.226562 169.527344 153.132812 169.46875 153.039062 169.488281 L 114.636719 177.839844 C 114.542969 177.859375 114.484375 177.949219 114.503906 178.042969 C 114.519531 178.125 114.59375 178.179688 114.671875 178.179688 Z M 114.671875 178.179688 " fill-opacity="1" fill-rule="nonzero"/><path fill="#45b28f" d="M 116.816406 187.941406 C 116.828125 187.941406 116.839844 187.941406 116.851562 187.9375 L 154.710938 179.707031 C 154.804688 179.6875 154.863281 179.59375 154.84375 179.5 C 154.824219 179.40625 154.730469 179.351562 154.636719 179.371094 L 116.777344 187.597656 C 116.683594 187.617188 116.625 187.710938 116.644531 187.804688 C 116.664062 187.886719 116.734375 187.941406 116.816406 187.941406 Z M 116.816406 187.941406 " fill-opacity="1" fill-rule="nonzero"/><path fill="#45b28f" d="M 118.0625 193.257812 C 118.082031 193.339844 118.152344 193.394531 118.230469 193.394531 C 118.242188 193.394531 118.257812 193.390625 118.269531 193.390625 L 177.207031 180.578125 C 177.300781 180.558594 177.363281 180.464844 177.339844 180.371094 C 177.320312 180.277344 177.226562 180.21875 177.136719 180.238281 L 118.195312 193.050781 C 118.101562 193.070312 118.042969 193.164062 118.0625 193.257812 Z M 118.0625 193.257812 " fill-opacity="1" fill-rule="nonzero"/><path fill="#45b28f" d="M 161.152344 188.789062 C 161.132812 188.695312 161.039062 188.636719 160.945312 188.65625 L 119.097656 197.753906 C 119.003906 197.773438 118.945312 197.867188 118.964844 197.960938 C 118.984375 198.042969 119.054688 198.097656 119.132812 198.097656 C 119.148438 198.097656 119.160156 198.097656 119.171875 198.09375 L 161.019531 188.996094 C 161.113281 188.976562 161.171875 188.882812 161.152344 188.789062 Z M 161.152344 188.789062 " fill-opacity="1" fill-rule="nonzero"/><path fill="#45b28f" d="M 121.433594 208.8125 C 121.445312 208.8125 121.457031 208.8125 121.46875 208.808594 L 164.816406 199.386719 C 164.910156 199.367188 164.96875 199.273438 164.949219 199.179688 C 164.929688 199.085938 164.835938 199.027344 164.742188 199.046875 L 121.394531 208.472656 C 121.300781 208.492188 121.242188 208.582031 121.261719 208.675781 C 121.28125 208.757812 121.351562 208.8125 121.433594 208.8125 Z M 121.433594 208.8125 " fill-opacity="1" fill-rule="nonzero"/><path fill="#45b28f" d="M 122.648438 214.035156 C 122.660156 214.035156 122.671875 214.03125 122.683594 214.03125 L 174.703125 202.722656 C 174.796875 202.703125 174.855469 202.609375 174.835938 202.515625 C 174.8125 202.421875 174.722656 202.363281 174.628906 202.382812 L 122.613281 213.691406 C 122.519531 213.710938 122.457031 213.804688 122.480469 213.898438 C 122.496094 213.976562 122.570312 214.035156 122.648438 214.035156 Z M 122.648438 214.035156 " fill-opacity="1" fill-rule="nonzero"/><path fill="#45b28f" d="M 168.601562 209.011719 C 168.582031 208.917969 168.492188 208.859375 168.394531 208.878906 L 123.671875 218.601562 C 123.578125 218.621094 123.519531 218.714844 123.539062 218.808594 C 123.558594 218.890625 123.628906 218.945312 123.710938 218.945312 C 123.722656 218.945312 123.734375 218.945312 123.746094 218.941406 L 168.46875 209.21875 C 168.5625 209.199219 168.621094 209.105469 168.601562 209.011719 Z M 168.601562 209.011719 " fill-opacity="1" fill-rule="nonzero"/><path fill="#45b28f" d="M 172.789062 219.152344 C 172.765625 219.058594 172.671875 218.996094 172.582031 219.019531 L 125.941406 229.15625 C 125.847656 229.175781 125.789062 229.269531 125.808594 229.363281 C 125.824219 229.445312 125.898438 229.5 125.976562 229.5 C 125.988281 229.5 126 229.5 126.015625 229.496094 L 172.65625 219.355469 C 172.75 219.335938 172.808594 219.246094 172.789062 219.152344 Z M 172.789062 219.152344 " fill-opacity="1" fill-rule="nonzero"/><path fill="#45b28f" d="M 189.488281 221.160156 L 127.347656 234.667969 C 127.253906 234.6875 127.195312 234.78125 127.214844 234.875 C 127.230469 234.953125 127.304688 235.011719 127.382812 235.011719 C 127.394531 235.011719 127.40625 235.007812 127.421875 235.007812 L 189.5625 221.496094 C 189.65625 221.476562 189.714844 221.386719 189.695312 221.292969 C 189.675781 221.199219 189.585938 221.136719 189.488281 221.160156 Z M 189.488281 221.160156 " fill-opacity="1" fill-rule="nonzero"/><path fill="#45b28f" d="M 175.589844 228.902344 L 128.191406 239.207031 C 128.097656 239.226562 128.039062 239.320312 128.058594 239.414062 C 128.078125 239.492188 128.148438 239.550781 128.226562 239.550781 C 128.238281 239.550781 128.253906 239.546875 128.265625 239.546875 L 175.664062 229.242188 C 175.757812 229.222656 175.816406 229.128906 175.796875 229.035156 C 175.773438 228.941406 175.683594 228.882812 175.589844 228.902344 Z M 175.589844 228.902344 " fill-opacity="1" fill-rule="nonzero"/><g clip-path="url(#a964beda72)"><path fill="#2a9d8f" d="M 150.113281 96.675781 L 148.207031 87.902344 C 147.894531 86.46875 147.046875 85.242188 145.8125 84.449219 C 144.578125 83.65625 143.109375 83.390625 141.675781 83.703125 L 126.472656 87.007812 C 124.675781 83.179688 120.414062 81.070312 116.261719 81.972656 C 112.109375 82.875 109.109375 86.566406 109.058594 90.792969 L 93.859375 94.097656 C 90.902344 94.738281 89.015625 97.667969 89.660156 100.628906 L 91.566406 109.402344 C 92.125 111.96875 94.40625 113.726562 96.933594 113.726562 C 97.316406 113.726562 97.707031 113.6875 98.101562 113.601562 L 145.914062 103.207031 C 148.875 102.5625 150.757812 99.632812 150.113281 96.675781 Z M 150.113281 96.675781 " fill-opacity="1" fill-rule="nonzero"/></g><path fill="#f5faf4" d="M 121.730469 88.835938 C 121.730469 89.09375 121.703125 89.355469 121.652344 89.609375 C 121.601562 89.867188 121.527344 90.113281 121.425781 90.355469 C 121.328125 90.597656 121.203125 90.824219 121.058594 91.042969 C 120.914062 91.261719 120.75 91.460938 120.566406 91.644531 C 120.378906 91.832031 120.179688 91.996094 119.960938 92.140625 C 119.746094 92.285156 119.515625 92.40625 119.273438 92.507812 C 119.035156 92.609375 118.785156 92.683594 118.527344 92.734375 C 118.273438 92.785156 118.015625 92.808594 117.753906 92.808594 C 117.492188 92.808594 117.234375 92.785156 116.976562 92.734375 C 116.722656 92.683594 116.472656 92.609375 116.230469 92.507812 C 115.992188 92.40625 115.761719 92.285156 115.542969 92.140625 C 115.328125 91.996094 115.125 91.832031 114.941406 91.644531 C 114.757812 91.460938 114.59375 91.261719 114.449219 91.042969 C 114.300781 90.824219 114.179688 90.597656 114.078125 90.355469 C 113.980469 90.113281 113.90625 89.867188 113.855469 89.609375 C 113.804688 89.355469 113.777344 89.09375 113.777344 88.835938 C 113.777344 88.574219 113.804688 88.316406 113.855469 88.058594 C 113.90625 87.800781 113.980469 87.554688 114.078125 87.3125 C 114.179688 87.070312 114.300781 86.84375 114.449219 86.625 C 114.59375 86.40625 114.757812 86.207031 114.941406 86.023438 C 115.125 85.839844 115.328125 85.671875 115.542969 85.527344 C 115.761719 85.382812 115.992188 85.261719 116.230469 85.160156 C 116.472656 85.0625 116.722656 84.984375 116.976562 84.933594 C 117.234375 84.882812 117.492188 84.859375 117.753906 84.859375 C 118.015625 84.859375 118.273438 84.882812 118.527344 84.933594 C 118.785156 84.984375 119.035156 85.0625 119.273438 85.160156 C 119.515625 85.261719 119.746094 85.382812 119.960938 85.527344 C 120.179688 85.671875 120.378906 85.839844 120.566406 86.023438 C 120.75 86.207031 120.914062 86.40625 121.058594 86.625 C 121.203125 86.84375 121.328125 87.070312 121.425781 87.3125 C 121.527344 87.554688 121.601562 87.800781 121.652344 88.058594 C 121.703125 88.316406 121.730469 88.574219 121.730469 88.835938 Z M 121.730469 88.835938 " fill-opacity="1" fill-rule="nonzero"/><g clip-path="url(#9f255f3218)"><path fill="#2a9d8f" d="M 314.140625 200.398438 C 314.140625 201.5625 314.113281 202.722656 314.054688 203.886719 C 313.996094 205.046875 313.910156 206.207031 313.796875 207.367188 C 313.683594 208.523438 313.542969 209.675781 313.371094 210.828125 C 313.199219 211.980469 313 213.125 312.773438 214.265625 C 312.546875 215.40625 312.292969 216.542969 312.007812 217.671875 C 311.726562 218.796875 311.417969 219.917969 311.078125 221.03125 C 310.742188 222.144531 310.375 223.25 309.984375 224.34375 C 309.59375 225.441406 309.175781 226.527344 308.730469 227.601562 C 308.285156 228.675781 307.8125 229.738281 307.316406 230.789062 C 306.816406 231.84375 306.292969 232.882812 305.746094 233.90625 C 305.199219 234.933594 304.625 235.945312 304.027344 236.941406 C 303.429688 237.941406 302.804688 238.921875 302.160156 239.890625 C 301.511719 240.859375 300.84375 241.808594 300.152344 242.742188 C 299.457031 243.675781 298.742188 244.59375 298.003906 245.492188 C 297.265625 246.394531 296.507812 247.273438 295.726562 248.136719 C 294.945312 248.996094 294.140625 249.839844 293.320312 250.664062 C 292.496094 251.484375 291.65625 252.289062 290.792969 253.070312 C 289.929688 253.851562 289.050781 254.609375 288.152344 255.347656 C 287.25 256.085938 286.335938 256.800781 285.398438 257.492188 C 284.464844 258.1875 283.515625 258.855469 282.546875 259.503906 C 281.582031 260.148438 280.597656 260.773438 279.601562 261.371094 C 278.601562 261.96875 277.589844 262.542969 276.5625 263.089844 C 275.539062 263.636719 274.5 264.160156 273.449219 264.660156 C 272.394531 265.15625 271.332031 265.625 270.257812 266.070312 C 269.183594 266.515625 268.097656 266.9375 267.003906 267.328125 C 265.90625 267.71875 264.804688 268.085938 263.691406 268.421875 C 262.578125 268.761719 261.457031 269.070312 260.328125 269.351562 C 259.199219 269.636719 258.0625 269.890625 256.921875 270.117188 C 255.78125 270.34375 254.636719 270.542969 253.484375 270.714844 C 252.335938 270.882812 251.179688 271.027344 250.023438 271.140625 C 248.863281 271.253906 247.703125 271.339844 246.542969 271.398438 C 245.378906 271.453125 244.21875 271.484375 243.054688 271.484375 C 241.890625 271.484375 240.730469 271.453125 239.566406 271.398438 C 238.40625 271.339844 237.246094 271.253906 236.085938 271.140625 C 234.929688 271.027344 233.773438 270.882812 232.625 270.714844 C 231.472656 270.542969 230.328125 270.34375 229.1875 270.117188 C 228.046875 269.890625 226.910156 269.636719 225.78125 269.351562 C 224.652344 269.070312 223.53125 268.761719 222.417969 268.421875 C 221.304688 268.085938 220.203125 267.71875 219.105469 267.328125 C 218.011719 266.9375 216.925781 266.515625 215.851562 266.070312 C 214.777344 265.625 213.714844 265.15625 212.660156 264.660156 C 211.609375 264.160156 210.570312 263.636719 209.546875 263.089844 C 208.519531 262.542969 207.507812 261.96875 206.507812 261.371094 C 205.511719 260.773438 204.527344 260.148438 203.5625 259.503906 C 202.59375 258.855469 201.644531 258.1875 200.707031 257.492188 C 199.773438 256.800781 198.859375 256.085938 197.957031 255.347656 C 197.058594 254.609375 196.179688 253.851562 195.316406 253.070312 C 194.453125 252.289062 193.613281 251.484375 192.789062 250.664062 C 191.96875 249.839844 191.164062 248.996094 190.382812 248.136719 C 189.601562 247.273438 188.84375 246.394531 188.105469 245.492188 C 187.367188 244.59375 186.652344 243.679688 185.957031 242.742188 C 185.265625 241.808594 184.59375 240.859375 183.949219 239.890625 C 183.304688 238.921875 182.679688 237.941406 182.082031 236.941406 C 181.484375 235.945312 180.910156 234.933594 180.363281 233.90625 C 179.8125 232.882812 179.292969 231.84375 178.792969 230.789062 C 178.296875 229.738281 177.824219 228.675781 177.378906 227.601562 C 176.933594 226.527344 176.515625 225.441406 176.125 224.34375 C 175.734375 223.25 175.367188 222.144531 175.03125 221.03125 C 174.691406 219.917969 174.382812 218.796875 174.097656 217.671875 C 173.816406 216.542969 173.5625 215.40625 173.335938 214.265625 C 173.109375 213.125 172.910156 211.980469 172.738281 210.828125 C 172.566406 209.675781 172.425781 208.523438 172.3125 207.367188 C 172.199219 206.207031 172.113281 205.046875 172.054688 203.886719 C 171.996094 202.722656 171.96875 201.5625 171.96875 200.398438 C 171.96875 199.234375 171.996094 198.070312 172.054688 196.910156 C 172.113281 195.746094 172.199219 194.585938 172.3125 193.429688 C 172.425781 192.273438 172.566406 191.117188 172.738281 189.96875 C 172.910156 188.816406 173.109375 187.671875 173.335938 186.53125 C 173.5625 185.386719 173.816406 184.253906 174.097656 183.125 C 174.382812 181.996094 174.691406 180.875 175.03125 179.761719 C 175.367188 178.648438 175.734375 177.546875 176.125 176.449219 C 176.515625 175.355469 176.933594 174.269531 177.378906 173.195312 C 177.824219 172.121094 178.296875 171.054688 178.792969 170.003906 C 179.292969 168.953125 179.8125 167.914062 180.363281 166.886719 C 180.910156 165.863281 181.484375 164.851562 182.082031 163.851562 C 182.679688 162.855469 183.304688 161.871094 183.949219 160.90625 C 184.59375 159.9375 185.265625 158.988281 185.957031 158.050781 C 186.652344 157.117188 187.367188 156.199219 188.105469 155.300781 C 188.84375 154.402344 189.601562 153.523438 190.382812 152.660156 C 191.164062 151.796875 191.96875 150.957031 192.789062 150.132812 C 193.613281 149.308594 194.453125 148.507812 195.316406 147.726562 C 196.179688 146.945312 197.058594 146.1875 197.957031 145.449219 C 198.859375 144.710938 199.773438 143.996094 200.707031 143.300781 C 201.644531 142.609375 202.59375 141.9375 203.5625 141.292969 C 204.527344 140.644531 205.511719 140.023438 206.507812 139.425781 C 207.507812 138.828125 208.519531 138.253906 209.546875 137.707031 C 210.570312 137.15625 211.609375 136.632812 212.660156 136.136719 C 213.714844 135.640625 214.777344 135.167969 215.851562 134.722656 C 216.925781 134.277344 218.011719 133.859375 219.105469 133.46875 C 220.203125 133.074219 221.304688 132.710938 222.417969 132.375 C 223.53125 132.035156 224.652344 131.726562 225.78125 131.441406 C 226.910156 131.160156 228.046875 130.90625 229.1875 130.679688 C 230.328125 130.449219 231.472656 130.253906 232.625 130.082031 C 233.773438 129.910156 234.929688 129.769531 236.085938 129.65625 C 237.246094 129.539062 238.40625 129.453125 239.566406 129.398438 C 240.730469 129.339844 241.890625 129.3125 243.054688 129.3125 C 244.21875 129.3125 245.378906 129.339844 246.542969 129.398438 C 247.703125 129.453125 248.863281 129.539062 250.023438 129.65625 C 251.179688 129.769531 252.335938 129.910156 253.484375 130.082031 C 254.636719 130.253906 255.78125 130.449219 256.921875 130.679688 C 258.0625 130.90625 259.199219 131.160156 260.328125 131.441406 C 261.457031 131.726562 262.578125 132.035156 263.691406 132.375 C 264.804688 132.710938 265.90625 133.074219 267.003906 133.46875 C 268.097656 133.859375 269.183594 134.277344 270.257812 134.722656 C 271.332031 135.167969 272.394531 135.640625 273.449219 136.136719 C 274.5 136.632812 275.539062 137.15625 276.5625 137.707031 C 277.589844 138.253906 278.601562 138.828125 279.601562 139.425781 C 280.597656 140.023438 281.582031 140.644531 282.546875 141.292969 C 283.515625 141.9375 284.464844 142.609375 285.398438 143.300781 C 286.335938 143.996094 287.25 144.710938 288.152344 145.449219 C 289.050781 146.1875 289.929688 146.945312 290.792969 147.726562 C 291.65625 148.507812 292.496094 149.308594 293.320312 150.132812 C 294.140625 150.957031 294.945312 151.796875 295.726562 152.660156 C 296.507812 153.523438 297.265625 154.402344 298.003906 155.300781 C 298.742188 156.199219 299.457031 157.117188 300.152344 158.050781 C 300.84375 158.988281 301.511719 159.9375 302.160156 160.90625 C 302.804688 161.871094 303.429688 162.855469 304.027344 163.851562 C 304.625 164.851562 305.199219 165.863281 305.746094 166.886719 C 306.292969 167.914062 306.816406 168.953125 307.316406 170.003906 C 307.8125 171.054688 308.285156 172.121094 308.730469 173.195312 C 309.175781 174.269531 309.59375 175.355469 309.984375 176.449219 C 310.375 177.546875 310.742188 178.648438 311.078125 179.761719 C 311.417969 180.875 311.726562 181.996094 312.007812 183.125 C 312.292969 184.253906 312.546875 185.386719 312.773438 186.53125 C 313 187.671875 313.199219 188.816406 313.371094 189.96875 C 313.542969 191.117188 313.683594 192.273438 313.796875 193.429688 C 313.910156 194.585938 313.996094 195.746094 314.054688 196.910156 C 314.113281 198.070312 314.140625 199.234375 314.140625 200.398438 Z M 314.140625 200.398438 " fill-opacity="1" fill-rule="nonzero"/></g><path fill="#f5faf4" d="M 303.5625 190.9375 C 303.871094 192.917969 304.082031 194.910156 304.195312 196.914062 C 304.3125 198.914062 304.328125 200.917969 304.246094 202.921875 C 304.160156 204.925781 303.980469 206.921875 303.703125 208.910156 C 303.421875 210.894531 303.046875 212.863281 302.574219 214.8125 C 302.105469 216.761719 301.539062 218.683594 300.875 220.578125 C 300.214844 222.46875 299.464844 224.328125 298.621094 226.148438 C 297.777344 227.96875 296.847656 229.742188 295.828125 231.46875 C 294.8125 233.199219 293.710938 234.871094 292.53125 236.492188 C 291.347656 238.113281 290.089844 239.671875 288.753906 241.167969 C 287.417969 242.664062 286.011719 244.09375 284.539062 245.453125 C 283.0625 246.808594 281.523438 248.09375 279.921875 249.300781 C 278.320312 250.507812 276.664062 251.632812 274.949219 252.679688 C 273.238281 253.722656 271.480469 254.683594 269.671875 255.554688 C 267.867188 256.425781 266.023438 257.207031 264.136719 257.898438 C 262.253906 258.585938 260.34375 259.183594 258.402344 259.6875 C 256.460938 260.1875 254.496094 260.59375 252.515625 260.90625 C 250.535156 261.214844 248.542969 261.425781 246.539062 261.542969 C 244.539062 261.65625 242.535156 261.671875 240.53125 261.589844 C 238.527344 261.507812 236.53125 261.324219 234.542969 261.046875 C 232.558594 260.769531 230.589844 260.394531 228.640625 259.921875 C 226.691406 259.449219 224.769531 258.882812 222.875 258.222656 C 220.980469 257.5625 219.125 256.808594 217.304688 255.964844 C 215.484375 255.121094 213.710938 254.191406 211.984375 253.175781 C 210.253906 252.15625 208.582031 251.054688 206.960938 249.875 C 205.339844 248.691406 203.78125 247.433594 202.285156 246.097656 C 200.789062 244.761719 199.359375 243.359375 198 241.882812 C 196.644531 240.40625 195.359375 238.867188 194.152344 237.265625 C 192.945312 235.664062 191.820312 234.007812 190.773438 232.296875 C 189.730469 230.582031 188.769531 228.824219 187.898438 227.019531 C 187.027344 225.210938 186.246094 223.367188 185.554688 221.484375 C 184.867188 219.601562 184.269531 217.6875 183.765625 215.746094 C 183.261719 213.804688 182.855469 211.84375 182.546875 209.863281 C 182.238281 207.878906 182.023438 205.886719 181.910156 203.886719 C 181.796875 201.882812 181.78125 199.878906 181.863281 197.875 C 181.945312 195.871094 182.128906 193.875 182.40625 191.890625 C 182.683594 189.902344 183.058594 187.9375 183.53125 185.988281 C 184.003906 184.035156 184.570312 182.117188 185.230469 180.222656 C 185.890625 178.328125 186.644531 176.472656 187.488281 174.652344 C 188.332031 172.832031 189.261719 171.058594 190.277344 169.328125 C 191.296875 167.601562 192.394531 165.925781 193.578125 164.304688 C 194.761719 162.683594 196.019531 161.125 197.355469 159.628906 C 198.691406 158.132812 200.09375 156.707031 201.570312 155.347656 C 203.046875 153.988281 204.585938 152.707031 206.1875 151.496094 C 207.789062 150.289062 209.445312 149.164062 211.15625 148.121094 C 212.871094 147.074219 214.628906 146.117188 216.433594 145.246094 C 218.242188 144.375 220.085938 143.59375 221.96875 142.902344 C 223.851562 142.210938 225.765625 141.613281 227.707031 141.113281 C 229.648438 140.609375 231.609375 140.203125 233.59375 139.894531 C 235.574219 139.582031 237.566406 139.371094 239.570312 139.257812 C 241.570312 139.144531 243.574219 139.125 245.578125 139.210938 C 247.582031 139.292969 249.578125 139.472656 251.5625 139.75 C 253.550781 140.03125 255.519531 140.40625 257.46875 140.878906 C 259.417969 141.351562 261.339844 141.917969 263.230469 142.578125 C 265.125 143.238281 266.984375 143.988281 268.800781 144.832031 C 270.621094 145.675781 272.398438 146.605469 274.125 147.625 C 275.851562 148.640625 277.527344 149.742188 279.148438 150.925781 C 280.769531 152.105469 282.328125 153.363281 283.824219 154.699219 C 285.320312 156.035156 286.75 157.441406 288.105469 158.917969 C 289.464844 160.390625 290.75 161.929688 291.957031 163.53125 C 293.164062 165.132812 294.289062 166.789062 295.335938 168.503906 C 296.378906 170.214844 297.335938 171.972656 298.207031 173.78125 C 299.082031 175.585938 299.863281 177.429688 300.550781 179.316406 C 301.242188 181.199219 301.839844 183.109375 302.34375 185.050781 C 302.84375 186.992188 303.25 188.957031 303.5625 190.9375 Z M 303.5625 190.9375 " fill-opacity="1" fill-rule="nonzero"/><path fill="#45b28f" d="M 244.773438 151.988281 C 244.773438 152.328125 244.707031 152.660156 244.578125 152.972656 C 244.445312 153.289062 244.261719 153.570312 244.019531 153.8125 C 243.777344 154.050781 243.496094 154.238281 243.179688 154.371094 C 242.867188 154.5 242.535156 154.566406 242.195312 154.566406 C 241.851562 154.566406 241.523438 154.5 241.207031 154.371094 C 240.890625 154.238281 240.613281 154.050781 240.371094 153.8125 C 240.128906 153.570312 239.945312 153.289062 239.8125 152.972656 C 239.683594 152.660156 239.617188 152.328125 239.617188 151.988281 C 239.617188 151.644531 239.683594 151.316406 239.8125 151 C 239.945312 150.683594 240.128906 150.40625 240.371094 150.164062 C 240.613281 149.921875 240.890625 149.734375 241.207031 149.605469 C 241.523438 149.476562 241.851562 149.410156 242.195312 149.410156 C 242.535156 149.410156 242.867188 149.476562 243.179688 149.605469 C 243.496094 149.734375 243.777344 149.921875 244.019531 150.164062 C 244.261719 150.40625 244.445312 150.683594 244.578125 151 C 244.707031 151.316406 244.773438 151.644531 244.773438 151.988281 Z M 244.773438 151.988281 " fill-opacity="1" fill-rule="nonzero"/><path fill="#45b28f" d="M 244.773438 151.988281 C 244.773438 152.328125 244.707031 152.660156 244.578125 152.972656 C 244.445312 153.289062 244.261719 153.570312 244.019531 153.8125 C 243.777344 154.050781 243.496094 154.238281 243.179688 154.371094 C 242.867188 154.5 242.535156 154.566406 242.195312 154.566406 C 241.851562 154.566406 241.523438 154.5 241.207031 154.371094 C 240.890625 154.238281 240.613281 154.050781 240.371094 153.8125 C 240.128906 153.570312 239.945312 153.289062 239.8125 152.972656 C 239.683594 152.660156 239.617188 152.328125 239.617188 151.988281 C 239.617188 151.644531 239.683594 151.316406 239.8125 151 C 239.945312 150.683594 240.128906 150.40625 240.371094 150.164062 C 240.613281 149.921875 240.890625 149.734375 241.207031 149.605469 C 241.523438 149.476562 241.851562 149.410156 242.195312 149.410156 C 242.535156 149.410156 242.867188 149.476562 243.179688 149.605469 C 243.496094 149.734375 243.777344 149.921875 244.019531 150.164062 C 244.261719 150.40625 244.445312 150.683594 244.578125 151 C 244.707031 151.316406 244.773438 151.644531 244.773438 151.988281 Z M 244.773438 151.988281 " fill-opacity="1" fill-rule="nonzero"/><path fill="#45b28f" d="M 220.683594 158.902344 C 220.683594 159.246094 220.617188 159.574219 220.488281 159.890625 C 220.355469 160.207031 220.171875 160.484375 219.929688 160.726562 C 219.6875 160.96875 219.40625 161.152344 219.09375 161.285156 C 218.777344 161.414062 218.445312 161.480469 218.105469 161.480469 C 217.761719 161.480469 217.433594 161.414062 217.117188 161.285156 C 216.800781 161.152344 216.523438 160.96875 216.28125 160.726562 C 216.039062 160.484375 215.855469 160.207031 215.722656 159.890625 C 215.59375 159.574219 215.527344 159.246094 215.527344 158.902344 C 215.527344 158.5625 215.59375 158.230469 215.722656 157.917969 C 215.855469 157.601562 216.039062 157.320312 216.28125 157.078125 C 216.523438 156.839844 216.800781 156.652344 217.117188 156.519531 C 217.433594 156.390625 217.761719 156.324219 218.105469 156.324219 C 218.445312 156.324219 218.777344 156.390625 219.09375 156.519531 C 219.40625 156.652344 219.6875 156.839844 219.929688 157.078125 C 220.171875 157.320312 220.355469 157.601562 220.488281 157.917969 C 220.617188 158.230469 220.683594 158.5625 220.683594 158.902344 Z M 220.683594 158.902344 " fill-opacity="1" fill-rule="nonzero"/><path fill="#45b28f" d="M 203.277344 176.9375 C 203.277344 177.277344 203.214844 177.609375 203.082031 177.921875 C 202.953125 178.238281 202.765625 178.519531 202.523438 178.761719 C 202.28125 179 202.003906 179.1875 201.6875 179.320312 C 201.371094 179.449219 201.042969 179.515625 200.699219 179.515625 C 200.359375 179.515625 200.03125 179.449219 199.714844 179.320312 C 199.398438 179.1875 199.117188 179 198.878906 178.761719 C 198.636719 178.519531 198.449219 178.238281 198.316406 177.921875 C 198.1875 177.609375 198.121094 177.277344 198.121094 176.9375 C 198.121094 176.59375 198.1875 176.265625 198.316406 175.949219 C 198.449219 175.632812 198.636719 175.355469 198.878906 175.113281 C 199.117188 174.871094 199.398438 174.6875 199.714844 174.554688 C 200.03125 174.425781 200.359375 174.359375 200.699219 174.359375 C 201.042969 174.359375 201.371094 174.425781 201.6875 174.554688 C 202.003906 174.6875 202.28125 174.871094 202.523438 175.113281 C 202.765625 175.355469 202.953125 175.632812 203.082031 175.949219 C 203.214844 176.265625 203.277344 176.59375 203.277344 176.9375 Z M 203.277344 176.9375 " fill-opacity="1" fill-rule="nonzero"/><path fill="#45b28f" d="M 197.222656 201.257812 C 197.222656 201.597656 197.15625 201.929688 197.027344 202.242188 C 196.894531 202.558594 196.710938 202.839844 196.46875 203.082031 C 196.226562 203.320312 195.945312 203.507812 195.632812 203.640625 C 195.316406 203.769531 194.984375 203.835938 194.644531 203.835938 C 194.300781 203.835938 193.972656 203.769531 193.65625 203.640625 C 193.339844 203.507812 193.0625 203.320312 192.820312 203.082031 C 192.578125 202.839844 192.394531 202.558594 192.261719 202.242188 C 192.132812 201.929688 192.066406 201.597656 192.066406 201.257812 C 192.066406 200.914062 192.132812 200.585938 192.261719 200.269531 C 192.394531 199.953125 192.578125 199.675781 192.820312 199.433594 C 193.0625 199.191406 193.339844 199.007812 193.65625 198.875 C 193.972656 198.746094 194.300781 198.679688 194.644531 198.679688 C 194.984375 198.679688 195.316406 198.746094 195.632812 198.875 C 195.945312 199.007812 196.226562 199.191406 196.46875 199.433594 C 196.710938 199.675781 196.894531 199.953125 197.027344 200.269531 C 197.15625 200.585938 197.222656 200.914062 197.222656 201.257812 Z M 197.222656 201.257812 " fill-opacity="1" fill-rule="nonzero"/><path fill="#45b28f" d="M 204.136719 225.347656 C 204.136719 225.6875 204.074219 226.019531 203.941406 226.332031 C 203.8125 226.648438 203.625 226.929688 203.382812 227.171875 C 203.140625 227.410156 202.863281 227.597656 202.546875 227.730469 C 202.230469 227.859375 201.902344 227.925781 201.558594 227.925781 C 201.21875 227.925781 200.890625 227.859375 200.574219 227.730469 C 200.257812 227.597656 199.976562 227.410156 199.738281 227.171875 C 199.496094 226.929688 199.308594 226.648438 199.179688 226.332031 C 199.046875 226.019531 198.980469 225.6875 198.980469 225.347656 C 198.980469 225.003906 199.046875 224.675781 199.179688 224.359375 C 199.308594 224.042969 199.496094 223.765625 199.738281 223.523438 C 199.976562 223.28125 200.257812 223.097656 200.574219 222.964844 C 200.890625 222.835938 201.21875 222.769531 201.558594 222.769531 C 201.902344 222.769531 202.230469 222.835938 202.546875 222.964844 C 202.863281 223.097656 203.140625 223.28125 203.382812 223.523438 C 203.625 223.765625 203.8125 224.042969 203.941406 224.359375 C 204.074219 224.675781 204.136719 225.003906 204.136719 225.347656 Z M 204.136719 225.347656 " fill-opacity="1" fill-rule="nonzero"/><path fill="#45b28f" d="M 222.171875 242.753906 C 222.171875 243.09375 222.105469 243.421875 221.976562 243.738281 C 221.84375 244.054688 221.660156 244.332031 221.417969 244.574219 C 221.175781 244.816406 220.894531 245.003906 220.582031 245.132812 C 220.265625 245.265625 219.933594 245.332031 219.59375 245.332031 C 219.25 245.332031 218.921875 245.265625 218.605469 245.132812 C 218.292969 245.003906 218.011719 244.816406 217.769531 244.574219 C 217.527344 244.332031 217.34375 244.054688 217.210938 243.738281 C 217.082031 243.421875 217.015625 243.09375 217.015625 242.753906 C 217.015625 242.410156 217.082031 242.082031 217.210938 241.765625 C 217.34375 241.449219 217.527344 241.171875 217.769531 240.929688 C 218.011719 240.6875 218.292969 240.5 218.605469 240.371094 C 218.921875 240.238281 219.25 240.175781 219.59375 240.175781 C 219.933594 240.175781 220.265625 240.238281 220.582031 240.371094 C 220.894531 240.5 221.175781 240.6875 221.417969 240.929688 C 221.660156 241.171875 221.84375 241.449219 221.976562 241.765625 C 222.105469 242.082031 222.171875 242.410156 222.171875 242.753906 Z M 222.171875 242.753906 " fill-opacity="1" fill-rule="nonzero"/><path fill="#45b28f" d="M 246.492188 248.808594 C 246.492188 249.148438 246.425781 249.480469 246.296875 249.792969 C 246.164062 250.109375 245.976562 250.390625 245.738281 250.632812 C 245.496094 250.871094 245.214844 251.058594 244.898438 251.191406 C 244.585938 251.320312 244.253906 251.386719 243.914062 251.386719 C 243.570312 251.386719 243.242188 251.320312 242.925781 251.191406 C 242.609375 251.058594 242.332031 250.871094 242.089844 250.632812 C 241.847656 250.390625 241.664062 250.109375 241.53125 249.792969 C 241.402344 249.480469 241.335938 249.148438 241.335938 248.808594 C 241.335938 248.464844 241.402344 248.136719 241.53125 247.820312 C 241.664062 247.503906 241.847656 247.226562 242.089844 246.984375 C 242.332031 246.742188 242.609375 246.558594 242.925781 246.425781 C 243.242188 246.296875 243.570312 246.230469 243.914062 246.230469 C 244.253906 246.230469 244.585938 246.296875 244.898438 246.425781 C 245.214844 246.558594 245.496094 246.742188 245.738281 246.984375 C 245.976562 247.226562 246.164062 247.503906 246.296875 247.820312 C 246.425781 248.136719 246.492188 248.464844 246.492188 248.808594 Z M 246.492188 248.808594 " fill-opacity="1" fill-rule="nonzero"/><path fill="#45b28f" d="M 270.582031 241.890625 C 270.582031 242.234375 270.515625 242.5625 270.386719 242.878906 C 270.253906 243.195312 270.070312 243.472656 269.828125 243.714844 C 269.585938 243.957031 269.304688 244.144531 268.992188 244.273438 C 268.675781 244.40625 268.347656 244.472656 268.003906 244.472656 C 267.660156 244.472656 267.332031 244.40625 267.015625 244.273438 C 266.703125 244.144531 266.421875 243.957031 266.179688 243.714844 C 265.9375 243.472656 265.753906 243.195312 265.621094 242.878906 C 265.492188 242.5625 265.425781 242.234375 265.425781 241.890625 C 265.425781 241.550781 265.492188 241.222656 265.621094 240.90625 C 265.753906 240.589844 265.9375 240.3125 266.179688 240.070312 C 266.421875 239.828125 266.703125 239.640625 267.015625 239.511719 C 267.332031 239.378906 267.660156 239.3125 268.003906 239.3125 C 268.347656 239.3125 268.675781 239.378906 268.992188 239.511719 C 269.304688 239.640625 269.585938 239.828125 269.828125 240.070312 C 270.070312 240.3125 270.253906 240.589844 270.386719 240.90625 C 270.515625 241.222656 270.582031 241.550781 270.582031 241.890625 Z M 270.582031 241.890625 " fill-opacity="1" fill-rule="nonzero"/><path fill="#45b28f" d="M 287.988281 223.859375 C 287.988281 224.199219 287.921875 224.53125 287.789062 224.84375 C 287.660156 225.160156 287.472656 225.441406 287.230469 225.683594 C 286.988281 225.921875 286.710938 226.109375 286.394531 226.242188 C 286.078125 226.371094 285.75 226.4375 285.410156 226.4375 C 285.066406 226.4375 284.738281 226.371094 284.421875 226.242188 C 284.105469 226.109375 283.828125 225.921875 283.585938 225.683594 C 283.34375 225.441406 283.15625 225.160156 283.027344 224.84375 C 282.894531 224.53125 282.828125 224.199219 282.828125 223.859375 C 282.828125 223.515625 282.894531 223.1875 283.027344 222.871094 C 283.15625 222.554688 283.34375 222.277344 283.585938 222.035156 C 283.828125 221.792969 284.105469 221.609375 284.421875 221.476562 C 284.738281 221.347656 285.066406 221.28125 285.410156 221.28125 C 285.75 221.28125 286.078125 221.347656 286.394531 221.476562 C 286.710938 221.609375 286.988281 221.792969 287.230469 222.035156 C 287.472656 222.277344 287.660156 222.554688 287.789062 222.871094 C 287.921875 223.1875 287.988281 223.515625 287.988281 223.859375 Z M 287.988281 223.859375 " fill-opacity="1" fill-rule="nonzero"/><path fill="#45b28f" d="M 294.042969 199.539062 C 294.042969 199.878906 293.976562 200.210938 293.847656 200.523438 C 293.714844 200.839844 293.53125 201.121094 293.289062 201.363281 C 293.046875 201.605469 292.765625 201.789062 292.453125 201.921875 C 292.136719 202.050781 291.808594 202.117188 291.464844 202.117188 C 291.121094 202.117188 290.792969 202.050781 290.476562 201.921875 C 290.164062 201.789062 289.882812 201.605469 289.640625 201.363281 C 289.398438 201.121094 289.214844 200.839844 289.082031 200.523438 C 288.953125 200.210938 288.886719 199.878906 288.886719 199.539062 C 288.886719 199.195312 288.953125 198.867188 289.082031 198.550781 C 289.214844 198.234375 289.398438 197.957031 289.640625 197.714844 C 289.882812 197.472656 290.164062 197.289062 290.476562 197.15625 C 290.792969 197.027344 291.121094 196.960938 291.464844 196.960938 C 291.808594 196.960938 292.136719 197.027344 292.453125 197.15625 C 292.765625 197.289062 293.046875 197.472656 293.289062 197.714844 C 293.53125 197.957031 293.714844 198.234375 293.847656 198.550781 C 293.976562 198.867188 294.042969 199.195312 294.042969 199.539062 Z M 294.042969 199.539062 " fill-opacity="1" fill-rule="nonzero"/><path fill="#45b28f" d="M 287.128906 175.449219 C 287.128906 175.789062 287.0625 176.121094 286.929688 176.433594 C 286.800781 176.75 286.613281 177.03125 286.371094 177.273438 C 286.128906 177.511719 285.851562 177.699219 285.535156 177.832031 C 285.21875 177.960938 284.890625 178.027344 284.550781 178.027344 C 284.207031 178.027344 283.878906 177.960938 283.5625 177.832031 C 283.246094 177.699219 282.96875 177.511719 282.726562 177.273438 C 282.484375 177.03125 282.296875 176.75 282.167969 176.433594 C 282.035156 176.121094 281.972656 175.789062 281.972656 175.449219 C 281.972656 175.105469 282.035156 174.777344 282.167969 174.460938 C 282.296875 174.144531 282.484375 173.867188 282.726562 173.625 C 282.96875 173.382812 283.246094 173.199219 283.5625 173.066406 C 283.878906 172.9375 284.207031 172.871094 284.550781 172.871094 C 284.890625 172.871094 285.21875 172.9375 285.535156 173.066406 C 285.851562 173.199219 286.128906 173.382812 286.371094 173.625 C 286.613281 173.867188 286.800781 174.144531 286.929688 174.460938 C 287.0625 174.777344 287.128906 175.105469 287.128906 175.449219 Z M 287.128906 175.449219 " fill-opacity="1" fill-rule="nonzero"/><path fill="#45b28f" d="M 269.09375 158.042969 C 269.09375 158.386719 269.027344 158.714844 268.898438 159.03125 C 268.765625 159.347656 268.582031 159.625 268.339844 159.867188 C 268.097656 160.109375 267.816406 160.296875 267.503906 160.425781 C 267.1875 160.558594 266.859375 160.621094 266.515625 160.621094 C 266.171875 160.621094 265.84375 160.558594 265.527344 160.425781 C 265.214844 160.296875 264.933594 160.109375 264.691406 159.867188 C 264.449219 159.625 264.265625 159.347656 264.132812 159.03125 C 264.003906 158.714844 263.9375 158.386719 263.9375 158.042969 C 263.9375 157.703125 264.003906 157.375 264.132812 157.058594 C 264.265625 156.742188 264.449219 156.460938 264.691406 156.222656 C 264.933594 155.980469 265.214844 155.792969 265.527344 155.660156 C 265.84375 155.53125 266.171875 155.464844 266.515625 155.464844 C 266.859375 155.464844 267.1875 155.53125 267.503906 155.660156 C 267.816406 155.792969 268.097656 155.980469 268.339844 156.222656 C 268.582031 156.460938 268.765625 156.742188 268.898438 157.058594 C 269.027344 157.375 269.09375 157.703125 269.09375 158.042969 Z M 269.09375 158.042969 " fill-opacity="1" fill-rule="nonzero"/><path fill="#2a9d8f" d="M 256.023438 200.070312 C 256.023438 200.839844 255.949219 201.601562 255.800781 202.355469 C 255.648438 203.109375 255.425781 203.839844 255.132812 204.550781 C 254.839844 205.261719 254.476562 205.933594 254.050781 206.574219 C 253.625 207.214844 253.140625 207.804688 252.597656 208.347656 C 252.050781 208.890625 251.460938 209.375 250.820312 209.804688 C 250.183594 210.230469 249.507812 210.589844 248.796875 210.886719 C 248.089844 211.179688 247.355469 211.402344 246.601562 211.550781 C 245.847656 211.703125 245.085938 211.777344 244.320312 211.777344 C 243.550781 211.777344 242.789062 211.703125 242.035156 211.550781 C 241.28125 211.402344 240.550781 211.179688 239.839844 210.886719 C 239.128906 210.589844 238.457031 210.230469 237.816406 209.804688 C 237.175781 209.375 236.585938 208.890625 236.042969 208.347656 C 235.5 207.804688 235.015625 207.214844 234.585938 206.574219 C 234.160156 205.933594 233.800781 205.261719 233.503906 204.550781 C 233.210938 203.839844 232.988281 203.109375 232.839844 202.355469 C 232.6875 201.601562 232.613281 200.839844 232.613281 200.070312 C 232.613281 199.304688 232.6875 198.542969 232.839844 197.789062 C 232.988281 197.035156 233.210938 196.300781 233.503906 195.59375 C 233.800781 194.882812 234.160156 194.207031 234.585938 193.570312 C 235.015625 192.929688 235.5 192.339844 236.042969 191.792969 C 236.585938 191.25 237.175781 190.765625 237.816406 190.339844 C 238.457031 189.914062 239.128906 189.550781 239.839844 189.257812 C 240.550781 188.964844 241.28125 188.742188 242.035156 188.589844 C 242.789062 188.441406 243.550781 188.367188 244.320312 188.367188 C 245.085938 188.367188 245.847656 188.441406 246.601562 188.589844 C 247.355469 188.742188 248.089844 188.964844 248.796875 189.257812 C 249.507812 189.550781 250.183594 189.914062 250.820312 190.339844 C 251.460938 190.765625 252.050781 191.25 252.597656 191.792969 C 253.140625 192.339844 253.625 192.929688 254.050781 193.570312 C 254.476562 194.207031 254.839844 194.882812 255.132812 195.59375 C 255.425781 196.300781 255.648438 197.035156 255.800781 197.789062 C 255.949219 198.542969 256.023438 199.304688 256.023438 200.070312 Z M 256.023438 200.070312 " fill-opacity="1" fill-rule="nonzero"/><path fill="#45b28f" d="M 244.089844 205.261719 L 236.027344 197.199219 C 235.453125 196.625 235.453125 195.6875 236.027344 195.113281 C 236.605469 194.535156 237.539062 194.535156 238.117188 195.113281 L 244.089844 201.085938 L 268.191406 176.984375 C 268.765625 176.40625 269.703125 176.40625 270.277344 176.984375 C 270.855469 177.558594 270.855469 178.496094 270.277344 179.070312 Z M 244.089844 205.261719 " fill-opacity="1" fill-rule="nonzero"/><path fill="#231f20" d="M 170.035156 140.515625 C 168.917969 140.515625 167.851562 140.738281 166.867188 141.140625 C 165.753906 141.59375 164.578125 141.902344 163.375 141.875 C 162.988281 141.867188 162.589844 141.898438 162.179688 141.984375 C 159.894531 142.449219 158.117188 144.394531 157.886719 146.71875 C 157.640625 149.210938 159.09375 151.394531 161.21875 152.261719 C 162.0625 156.707031 165.6875 160.046875 170.035156 160.046875 C 175.003906 160.046875 179.03125 155.675781 179.03125 150.28125 C 179.03125 144.890625 175.003906 140.515625 170.035156 140.515625 Z M 170.035156 140.515625 " fill-opacity="1" fill-rule="nonzero"/><path fill="#f8b6bf" d="M 174.882812 158.257812 C 173.710938 157.636719 173.320312 156.226562 173.855469 155.109375 C 174.910156 154.558594 175.628906 153.453125 175.628906 152.183594 C 175.628906 150.355469 174.148438 148.875 172.324219 148.875 C 170.496094 148.875 169.015625 150.355469 169.015625 152.183594 C 169.015625 152.246094 169.023438 152.308594 169.027344 152.371094 L 168.914062 152.457031 C 167.347656 152.867188 165.941406 151.398438 166.410156 149.851562 L 166.703125 148.890625 C 166.421875 146.433594 164.910156 145.429688 162.140625 145.910156 L 161.835938 146.230469 C 160.851562 147.265625 160.3125 148.644531 160.335938 150.070312 L 160.371094 152.507812 L 158.402344 154.863281 C 157.957031 155.390625 158.1875 156.203125 158.839844 156.425781 L 160.003906 156.820312 L 160.890625 161.1875 C 161.144531 162.4375 162.328125 163.269531 163.585938 163.085938 L 165.691406 162.78125 L 166.726562 164.921875 L 175.628906 160.832031 L 175.222656 159.65625 Z M 174.882812 158.257812 " fill-opacity="1" fill-rule="nonzero"/><path fill="#f8b6bf" d="M 143.070312 196.097656 L 131.820312 195.410156 C 131.542969 195.394531 131.269531 195.433594 131.011719 195.535156 L 120.078125 199.714844 C 119.769531 199.832031 119.503906 200.046875 119.3125 200.332031 L 117.546875 202.949219 C 117.476562 203.054688 117.542969 203.203125 117.664062 203.207031 C 118.285156 203.226562 118.882812 202.964844 119.3125 202.484375 L 121.117188 200.476562 L 119.761719 202.789062 C 119.535156 203.175781 119.78125 203.6875 120.210938 203.707031 L 122.273438 203.789062 C 122.761719 203.808594 123.230469 203.585938 123.546875 203.183594 L 124.402344 202.097656 C 124.777344 201.621094 125.355469 201.382812 125.929688 201.464844 L 129.351562 201.957031 C 130.324219 202.097656 131.28125 201.605469 131.796875 200.707031 L 132.816406 198.921875 L 143.070312 201.335938 " fill-opacity="1" fill-rule="nonzero"/><path fill="#2a9d8f" d="M 163.382812 174.734375 L 154.207031 190.640625 C 153.511719 191.851562 152.191406 192.648438 150.710938 192.757812 L 133.328125 194.007812 L 132.933594 202.378906 L 154.363281 203.144531 C 156.1875 203.207031 157.925781 202.382812 158.933594 200.972656 L 174.214844 179.574219 L 174.605469 174.582031 C 174.75 172.738281 173.273438 171.136719 171.277344 170.96875 L 170.960938 170.941406 C 167.84375 170.683594 164.855469 172.179688 163.382812 174.734375 Z M 163.382812 174.734375 " fill-opacity="1" fill-rule="nonzero"/><path fill="#f5faf4" d="M 194.972656 283.949219 L 183.382812 237.363281 C 187.589844 234.367188 190.492188 229.726562 191.082031 224.378906 L 194.582031 192.628906 C 195.308594 186.046875 190.292969 180.1875 183.503906 179.683594 L 173.816406 178.96875 L 161.628906 209.664062 L 132.992188 225.734375 L 135.214844 239.230469 C 135.195312 239.226562 135.175781 239.21875 135.152344 239.214844 L 131.128906 238.460938 C 130.117188 238.269531 129.148438 238.953125 128.984375 239.972656 L 121.71875 285.902344 C 121.542969 287.011719 122.398438 288.015625 123.523438 288.015625 L 123.890625 288.015625 C 124.738281 288.015625 125.472656 287.4375 125.667969 286.617188 L 136.191406 243.105469 L 156.125 241.921875 L 166.710938 292.304688 C 166.910156 293.246094 167.644531 293.914062 168.488281 293.914062 L 168.859375 293.914062 C 169.980469 293.914062 170.839844 292.757812 170.664062 291.480469 L 163.785156 241.46875 L 173.285156 240.90625 C 174.410156 240.839844 175.511719 240.675781 176.578125 240.425781 L 191.128906 285.1875 C 191.429688 286.105469 192.230469 286.691406 193.070312 286.597656 L 193.4375 286.558594 C 194.554688 286.441406 195.285156 285.199219 194.972656 283.949219 Z M 194.972656 283.949219 " fill-opacity="1" fill-rule="nonzero"/><path fill="#45b28f" d="M 194.972656 283.949219 L 183.382812 237.363281 C 187.589844 234.367188 190.492188 229.726562 191.082031 224.378906 L 194.582031 192.628906 C 195.308594 186.046875 190.292969 180.1875 183.503906 179.683594 L 173.816406 178.96875 L 161.628906 209.664062 L 132.992188 225.734375 L 135.214844 239.230469 C 135.195312 239.226562 135.175781 239.21875 135.152344 239.214844 L 131.128906 238.460938 C 130.117188 238.269531 129.148438 238.953125 128.984375 239.972656 L 121.71875 285.902344 C 121.542969 287.011719 122.398438 288.015625 123.523438 288.015625 L 123.890625 288.015625 C 124.738281 288.015625 125.472656 287.4375 125.667969 286.617188 L 136.191406 243.105469 L 156.125 241.921875 L 166.710938 292.304688 C 166.910156 293.246094 167.644531 293.914062 168.488281 293.914062 L 168.859375 293.914062 C 169.980469 293.914062 170.839844 292.757812 170.664062 291.480469 L 163.785156 241.46875 L 173.285156 240.90625 C 174.410156 240.839844 175.511719 240.675781 176.578125 240.425781 L 191.128906 285.1875 C 191.429688 286.105469 192.230469 286.691406 193.070312 286.597656 L 193.4375 286.558594 C 194.554688 286.441406 195.285156 285.199219 194.972656 283.949219 Z M 194.972656 283.949219 " fill-opacity="1" fill-rule="nonzero"/><g mask="url(#b78e47ae36)"><g transform="matrix(1, 0, 0, 1, 121, 178)"><g clip-path="url(#eaab900875)"><g clip-path="url(#39393a441b)"><path fill="#231f20" d="M 73.972656 105.949219 L 62.382812 59.363281 C 66.589844 56.367188 69.492188 51.726562 70.082031 46.378906 L 73.582031 14.628906 C 74.308594 8.046875 69.292969 2.1875 62.503906 1.683594 L 52.816406 0.96875 L 40.628906 31.664062 L 11.992188 47.734375 L 14.214844 61.230469 C 14.195312 61.226562 14.175781 61.21875 14.152344 61.214844 L 10.128906 60.460938 C 9.117188 60.269531 8.148438 60.953125 7.984375 61.972656 L 0.71875 107.902344 C 0.542969 109.011719 1.398438 110.015625 2.523438 110.015625 L 2.890625 110.015625 C 3.738281 110.015625 4.472656 109.4375 4.667969 108.617188 L 15.191406 65.105469 L 35.125 63.921875 L 45.710938 114.304688 C 45.910156 115.246094 46.644531 115.914062 47.488281 115.914062 L 47.859375 115.914062 C 48.980469 115.914062 49.839844 114.757812 49.664062 113.480469 L 42.785156 63.46875 L 52.285156 62.90625 C 53.410156 62.839844 54.511719 62.675781 55.578125 62.425781 L 70.128906 107.1875 C 70.429688 108.105469 71.230469 108.691406 72.070312 108.597656 L 72.4375 108.558594 C 73.554688 108.441406 74.285156 107.199219 73.972656 105.949219 Z M 73.972656 105.949219 " fill-opacity="1" fill-rule="nonzero"/></g></g></g></g><path fill="#f8b6bf" d="M 144.71875 282.898438 L 144.101562 269.859375 L 135.085938 269.410156 L 137.757812 285.59375 Z M 144.71875 282.898438 " fill-opacity="1" fill-rule="nonzero"/><path fill="#2a9d8f" d="M 123.625 286.824219 C 123.742188 286.75 123.863281 286.6875 124 286.636719 L 128.171875 285.085938 C 130.894531 284.074219 133.371094 282.558594 135.480469 280.625 L 135.9375 280.199219 C 136.609375 279.585938 137.722656 279.816406 138.109375 280.648438 L 139.582031 283.824219 L 142.773438 280.601562 C 143.730469 279.632812 145.355469 279.707031 146.265625 280.757812 L 146.332031 280.835938 C 147.007812 281.617188 147.539062 282.503906 147.90625 283.457031 L 148.601562 285.269531 L 149.253906 286.992188 C 149.851562 288.539062 148.828125 290.195312 147.160156 290.390625 L 137.90625 291.46875 C 134.378906 293.382812 130.921875 293.476562 127.535156 292.035156 C 127.058594 291.832031 126.546875 291.734375 126.035156 291.648438 C 125.738281 291.605469 125.449219 291.527344 125.171875 291.425781 C 124.269531 291.089844 123.484375 290.457031 122.972656 289.617188 C 122.367188 288.632812 122.6875 287.402344 123.625 286.824219 Z M 123.625 286.824219 " fill-opacity="1" fill-rule="nonzero"/><path fill="#231f20" d="M 123.625 286.824219 L 124.902344 287.996094 C 126.632812 289.59375 128.953125 290.386719 131.296875 290.195312 L 136.039062 289.8125 C 137.242188 289.710938 138.410156 289.371094 139.476562 288.8125 L 144.628906 286.097656 C 145.851562 285.457031 147.222656 285.167969 148.601562 285.269531 L 149.253906 286.992188 C 149.851562 288.539062 148.828125 290.195312 147.160156 290.390625 L 137.90625 291.46875 C 134.378906 293.382812 130.925781 293.476562 127.535156 292.035156 C 127.058594 291.832031 126.546875 291.734375 126.035156 291.648438 C 125.738281 291.605469 125.449219 291.527344 125.171875 291.425781 C 124.269531 291.089844 123.484375 290.457031 122.972656 289.617188 C 122.367188 288.632812 122.6875 287.402344 123.625 286.824219 Z M 123.625 286.824219 " fill-opacity="1" fill-rule="nonzero"/><path fill="#2a9d8f" d="M 174.5625 219.867188 L 172.304688 203.238281 L 161.746094 204.429688 L 149.96875 203.175781 L 148.664062 209.425781 L 121.378906 220.554688 C 116.042969 222.734375 111.882812 227.082031 109.945312 232.511719 L 99.714844 261.121094 C 98.796875 263.699219 99.941406 266.472656 102.230469 267.722656 L 100 274.84375 C 99.71875 274.710938 99.390625 274.667969 99.0625 274.761719 L 98.464844 274.933594 C 95.710938 275.714844 92.816406 275.949219 89.933594 275.625 L 85.507812 275.132812 C 85.363281 275.117188 85.226562 275.117188 85.089844 275.132812 C 83.992188 275.226562 83.148438 276.179688 83.25 277.335938 C 83.328125 278.316406 83.746094 279.230469 84.398438 279.9375 C 84.601562 280.152344 84.824219 280.351562 85.070312 280.527344 C 85.488281 280.832031 85.898438 281.148438 86.234375 281.546875 C 88.613281 284.359375 91.738281 285.832031 95.75 285.710938 L 104.5 288.914062 C 106.078125 289.492188 107.734375 288.472656 107.898438 286.820312 L 108.089844 284.988281 L 108.285156 283.054688 C 108.390625 282.042969 108.3125 281.011719 108.0625 280.007812 L 108.035156 279.910156 C 107.871094 279.25 107.445312 278.722656 106.902344 278.40625 L 110.625 270.0625 L 111.167969 270.203125 C 113.707031 270.859375 116.347656 269.601562 117.464844 267.222656 C 120.957031 259.800781 122.914062 251.613281 123.347656 242.675781 L 129.769531 267.523438 C 130.175781 269.09375 131.589844 270.191406 133.210938 270.191406 L 144.238281 270.191406 C 146.382812 270.191406 148.046875 268.304688 147.769531 266.175781 C 146.527344 256.773438 143.679688 248.105469 138.410156 240.554688 C 137.523438 239.285156 138.472656 237.539062 140.019531 237.574219 C 148.042969 237.75 155.558594 237.390625 162.390625 236.316406 C 170.148438 235.09375 175.617188 227.648438 174.5625 219.867188 Z M 174.5625 219.867188 " fill-opacity="1" fill-rule="nonzero"/><path fill="#f8b6bf" d="M 105.691406 281.125 L 111.007812 269.203125 L 103.164062 264.742188 L 98.261719 280.394531 Z M 105.691406 281.125 " fill-opacity="1" fill-rule="nonzero"/><path fill="#2a9d8f" d="M 85.089844 275.132812 C 85.226562 275.117188 85.363281 275.121094 85.507812 275.132812 L 89.933594 275.625 C 92.816406 275.949219 95.710938 275.714844 98.464844 274.933594 L 99.0625 274.761719 C 99.945312 274.515625 100.832031 275.21875 100.804688 276.140625 L 100.6875 279.640625 L 104.988281 278.195312 C 106.277344 277.761719 107.695312 278.558594 108.035156 279.910156 L 108.0625 280.007812 C 108.3125 281.011719 108.390625 282.042969 108.285156 283.054688 L 108.089844 284.988281 L 107.898438 286.820312 C 107.734375 288.472656 106.078125 289.492188 104.5 288.914062 L 95.75 285.710938 C 91.738281 285.832031 88.613281 284.359375 86.234375 281.546875 C 85.898438 281.148438 85.488281 280.832031 85.070312 280.527344 C 84.824219 280.351562 84.601562 280.152344 84.398438 279.9375 C 83.746094 279.230469 83.328125 278.316406 83.25 277.335938 C 83.148438 276.179688 83.992188 275.226562 85.089844 275.132812 Z M 85.089844 275.132812 " fill-opacity="1" fill-rule="nonzero"/><path fill="#231f20" d="M 85.089844 275.132812 L 85.703125 276.753906 C 86.53125 278.960938 88.242188 280.714844 90.421875 281.597656 L 94.828125 283.390625 C 95.949219 283.84375 97.144531 284.066406 98.347656 284.042969 L 104.171875 283.9375 C 105.550781 283.917969 106.90625 284.277344 108.089844 284.988281 L 107.898438 286.820312 C 107.734375 288.472656 106.078125 289.492188 104.5 288.914062 L 95.75 285.710938 C 91.738281 285.832031 88.613281 284.359375 86.234375 281.546875 C 85.898438 281.148438 85.488281 280.832031 85.070312 280.527344 C 84.824219 280.351562 84.601562 280.152344 84.398438 279.9375 C 83.746094 279.230469 83.328125 278.316406 83.25 277.335938 C 83.148438 276.179688 83.992188 275.226562 85.089844 275.132812 Z M 85.089844 275.132812 " fill-opacity="1" fill-rule="nonzero"/><path fill="#45b28f" d="M 179.671875 168.347656 L 177.167969 161.535156 C 176.851562 160.675781 175.890625 160.242188 175.035156 160.574219 L 166.9375 164.03125 C 165.671875 164.570312 164.851562 165.816406 164.851562 167.191406 L 164.851562 168.175781 C 160.65625 168.78125 157.085938 171.460938 156 175.03125 L 151.859375 192.523438 C 151.496094 192.644531 151.109375 192.726562 150.710938 192.757812 L 133.328125 194.007812 L 132.933594 202.378906 L 148.734375 202.941406 L 148.6875 203.609375 L 149.226562 203.652344 L 148.335938 207.414062 C 147.65625 210.292969 148.574219 213.203125 150.835938 215.304688 L 153.382812 217.675781 C 158.023438 221.996094 164.027344 225.054688 170.691406 226.589844 C 175.914062 227.792969 181.042969 224.242188 181.832031 218.945312 L 187.992188 177.539062 C 188.675781 172.9375 184.964844 168.957031 179.671875 168.347656 Z M 179.671875 168.347656 " fill-opacity="1" fill-rule="nonzero"/><g mask="url(#d95b1313de)"><g transform="matrix(1, 0, 0, 1, 132, 191)"><g clip-path="url(#5b4246e4d4)"><g clip-path="url(#10dab8b92e)"><path fill="#231f20" d="M 19.863281 1.523438 L 19.402344 3.453125 L 17.316406 3.542969 L 16.742188 11.9375 L 0.933594 11.382812 L 1.324219 3.007812 L 18.714844 1.753906 C 19.109375 1.730469 19.496094 1.648438 19.863281 1.523438 Z M 19.863281 1.523438 " fill-opacity="1" fill-rule="nonzero"/></g></g></g></g><g mask="url(#82439aa630)"><g transform="matrix(1, 0, 0, 1, 148, 170)"><g clip-path="url(#f68ffeddf2)"><g clip-path="url(#a9d0808111)"><path fill="#231f20" d="M 29.269531 4.796875 L 20.414062 21.695312 C 19.742188 22.980469 18.515625 23.792969 17.167969 23.851562 L 1.316406 24.546875 L 0.6875 33.609375 L 20.15625 35.253906 C 21.8125 35.394531 23.417969 34.566406 24.382812 33.074219 L 31.992188 23.203125 C 36.058594 17.929688 38.644531 11.667969 39.480469 5.0625 C 39.671875 3.070312 38.378906 1.273438 36.570312 1.019531 L 36.285156 0.976562 C 33.457031 0.578125 30.691406 2.085938 29.269531 4.796875 Z M 29.269531 4.796875 " fill-opacity="1" fill-rule="nonzero"/></g></g></g></g><path fill="#f5faf4" d="M 222.480469 207.417969 L 67.378906 207.417969 C 66.359375 207.417969 65.527344 208.246094 65.527344 209.269531 L 65.527344 211.183594 C 65.527344 212.207031 66.359375 213.035156 67.378906 213.035156 L 73.957031 213.035156 L 73.957031 291.265625 L 77.574219 291.265625 L 77.574219 213.035156 L 211.53125 213.035156 L 211.53125 291.265625 L 215.148438 291.265625 L 215.148438 213.035156 L 222.480469 213.035156 C 223.503906 213.035156 224.332031 212.207031 224.332031 211.183594 L 224.332031 209.269531 C 224.332031 208.246094 223.503906 207.417969 222.480469 207.417969 Z M 222.480469 207.417969 " fill-opacity="1" fill-rule="nonzero"/><g mask="url(#cd8c62948e)"><g transform="matrix(1, 0, 0, 1, 65, 207)"><g clip-path="url(#ba1e6b34ff)"><g clip-path="url(#18a15e936b)"><path fill="#231f20" d="M 157.480469 0.417969 L 2.378906 0.417969 C 1.359375 0.417969 0.527344 1.246094 0.527344 2.269531 L 0.527344 4.183594 C 0.527344 5.207031 1.359375 6.035156 2.378906 6.035156 L 8.957031 6.035156 L 8.957031 84.265625 L 12.574219 84.265625 L 12.574219 6.035156 L 146.53125 6.035156 L 146.53125 84.265625 L 150.148438 84.265625 L 150.148438 6.035156 L 157.480469 6.035156 C 158.503906 6.035156 159.332031 5.207031 159.332031 4.183594 L 159.332031 2.269531 C 159.332031 1.246094 158.503906 0.417969 157.480469 0.417969 Z M 157.480469 0.417969 " fill-opacity="1" fill-rule="nonzero"/></g></g></g></g><path fill="#231f20" d="M 151.726562 204.972656 L 128.96875 204.972656 L 121.671875 184.835938 C 121.210938 183.5625 119.804688 182.535156 118.535156 182.535156 L 89.691406 182.535156 C 88.421875 182.535156 87.765625 183.5625 88.226562 184.835938 L 95.578125 205.117188 C 96.039062 206.386719 97.441406 207.417969 98.714844 207.417969 L 153.421875 207.417969 C 153.617188 207.417969 153.773438 207.261719 153.773438 207.066406 L 153.773438 207.019531 C 153.773438 205.886719 152.855469 204.972656 151.726562 204.972656 Z M 151.726562 204.972656 " fill-opacity="1" fill-rule="nonzero"/><path fill="#f5faf4" d="M 110.414062 192.832031 C 110.820312 193.171875 111.167969 193.554688 111.453125 193.976562 C 111.742188 194.402344 111.945312 194.832031 112.0625 195.277344 C 112.183594 195.71875 112.214844 196.136719 112.148438 196.527344 C 112.085938 196.921875 111.9375 197.257812 111.699219 197.542969 C 111.460938 197.828125 111.15625 198.035156 110.78125 198.167969 C 110.402344 198.300781 109.988281 198.347656 109.53125 198.308594 C 109.074219 198.269531 108.613281 198.144531 108.144531 197.941406 C 107.679688 197.734375 107.242188 197.460938 106.832031 197.121094 C 106.425781 196.78125 106.078125 196.398438 105.792969 195.972656 C 105.507812 195.550781 105.304688 195.117188 105.183594 194.675781 C 105.0625 194.234375 105.035156 193.816406 105.097656 193.425781 C 105.160156 193.03125 105.3125 192.691406 105.550781 192.410156 C 105.785156 192.125 106.09375 191.914062 106.46875 191.785156 C 106.84375 191.652344 107.257812 191.605469 107.714844 191.644531 C 108.171875 191.683594 108.632812 191.808594 109.101562 192.011719 C 109.570312 192.21875 110.007812 192.492188 110.414062 192.832031 Z M 110.414062 192.832031 " fill-opacity="1" fill-rule="nonzero"/><g mask="url(#63b076a89b)"><g transform="matrix(1, 0, 0, 1, 83, 212)"><g clip-path="url(#4ab14e44da)"><g clip-path="url(#4bc760e7ed)"><path fill="#231f20" d="M 69.65625 1.03125 C 68.960938 2.125 67.941406 2.988281 66.722656 3.480469 L 45.859375 11.972656 C 44.320312 12.507812 42.976562 13.347656 41.871094 14.410156 C 41.773438 14.503906 41.675781 14.601562 41.578125 14.707031 C 41.570312 14.710938 41.570312 14.710938 41.570312 14.710938 C 41.382812 14.90625 41.199219 15.113281 41.019531 15.328125 C 40.398438 16.078125 39.882812 16.910156 39.488281 17.789062 C 39.371094 18.042969 39.265625 18.296875 39.183594 18.554688 C 39.132812 18.683594 39.085938 18.816406 39.046875 18.945312 C 38.917969 19.316406 38.820312 19.703125 38.75 20.089844 C 38.734375 20.136719 38.722656 20.1875 38.71875 20.226562 C 38.546875 21.109375 38.484375 22.011719 38.546875 22.929688 C 38.546875 22.933594 38.546875 22.933594 38.546875 22.933594 C 38.589844 23.621094 38.699219 24.296875 38.871094 24.980469 L 40.183594 30.050781 L 40.347656 30.675781 C 39.914062 39.613281 37.960938 47.800781 34.464844 55.222656 C 33.347656 57.601562 30.707031 58.859375 28.167969 58.199219 L 27.628906 58.058594 L 23.902344 66.40625 C 24.445312 66.722656 24.867188 67.25 25.039062 67.90625 L 25.0625 68.003906 C 25.3125 69.015625 25.386719 70.039062 25.289062 71.054688 L 25.085938 72.984375 L 24.898438 74.816406 C 24.734375 76.472656 23.078125 77.488281 21.5 76.914062 L 12.75 73.710938 C 8.738281 73.828125 5.609375 72.363281 3.234375 69.546875 C 2.898438 69.148438 2.488281 68.832031 2.070312 68.523438 C 1.820312 68.355469 1.601562 68.152344 1.398438 67.9375 C 0.746094 67.230469 0.332031 66.3125 0.246094 65.335938 C 0.148438 64.179688 0.992188 63.226562 2.089844 63.128906 C 2.226562 63.117188 2.367188 63.117188 2.503906 63.136719 L 6.933594 63.625 C 9.820312 63.949219 12.714844 63.710938 15.464844 62.933594 L 16.0625 62.757812 C 16.394531 62.671875 16.71875 62.707031 16.996094 62.84375 L 19.226562 55.71875 C 16.941406 54.472656 15.792969 51.699219 16.714844 49.121094 L 26.945312 20.507812 C 28.882812 15.085938 33.042969 10.734375 38.382812 8.554688 L 56.820312 1.03125 Z M 69.65625 1.03125 " fill-opacity="1" fill-rule="nonzero"/></g></g></g></g><path fill="#f8b6bf" d="M 149.21875 195.984375 L 148.941406 199.957031 L 147.683594 199.664062 L 146.570312 201.605469 C 146.007812 202.589844 144.964844 203.121094 143.902344 202.96875 L 140.167969 202.433594 C 139.539062 202.347656 138.917969 202.601562 138.5 203.128906 L 137.570312 204.308594 C 137.222656 204.746094 136.714844 204.992188 136.179688 204.96875 L 133.929688 204.882812 C 133.460938 204.855469 133.191406 204.300781 133.441406 203.878906 L 134.921875 201.355469 L 132.945312 203.550781 C 132.476562 204.070312 131.828125 204.355469 131.152344 204.339844 C 131.015625 204.332031 130.941406 204.167969 131.023438 204.050781 L 132.945312 201.199219 C 133.160156 200.886719 133.449219 200.652344 133.785156 200.527344 L 145.714844 195.960938 C 145.996094 195.859375 146.296875 195.808594 146.597656 195.828125 Z M 149.21875 195.984375 " fill-opacity="1" fill-rule="nonzero"/></svg>